<mxfile host="app.diagrams.net" modified="2024-03-05T11:24:30.084Z" agent="Mozilla/5.0 (Windows NT 10.0; Win64; x64) AppleWebKit/537.36 (KHTML, like Gecko) Chrome/122.0.0.0 Safari/537.36" etag="sBer_Z9OeKL_4iCdjMAv" version="24.0.1" type="device">
  <diagram id="C5RBs43oDa-KdzZeNtuy" name="Page-1">
    <mxGraphModel dx="1674" dy="780" grid="1" gridSize="10" guides="1" tooltips="1" connect="1" arrows="1" fold="1" page="1" pageScale="1" pageWidth="827" pageHeight="1169" math="0" shadow="0">
      <root>
        <mxCell id="WIyWlLk6GJQsqaUBKTNV-0" />
        <mxCell id="WIyWlLk6GJQsqaUBKTNV-1" parent="WIyWlLk6GJQsqaUBKTNV-0" />
        <mxCell id="gtBUwyys2WCeIk4xlRrJ-0" value="start" style="ellipse;whiteSpace=wrap;html=1;" parent="WIyWlLk6GJQsqaUBKTNV-1" vertex="1">
          <mxGeometry x="427.75" y="5" width="120" height="40" as="geometry" />
        </mxCell>
        <mxCell id="a43TZkrOEhZXSLPtQOq1-2" style="edgeStyle=orthogonalEdgeStyle;rounded=0;orthogonalLoop=1;jettySize=auto;html=1;exitX=0.5;exitY=1;exitDx=0;exitDy=0;" edge="1" parent="WIyWlLk6GJQsqaUBKTNV-1" source="gtBUwyys2WCeIk4xlRrJ-1" target="a43TZkrOEhZXSLPtQOq1-0">
          <mxGeometry relative="1" as="geometry" />
        </mxCell>
        <mxCell id="gtBUwyys2WCeIk4xlRrJ-1" value="input size&lt;div&gt;input initialArray[]&lt;/div&gt;" style="shape=parallelogram;perimeter=parallelogramPerimeter;whiteSpace=wrap;html=1;fixedSize=1;" parent="WIyWlLk6GJQsqaUBKTNV-1" vertex="1">
          <mxGeometry x="417" y="80" width="142" height="60" as="geometry" />
        </mxCell>
        <mxCell id="a43TZkrOEhZXSLPtQOq1-7" style="edgeStyle=orthogonalEdgeStyle;rounded=0;orthogonalLoop=1;jettySize=auto;html=1;exitX=1;exitY=0.5;exitDx=0;exitDy=0;" edge="1" parent="WIyWlLk6GJQsqaUBKTNV-1" source="nJn8ekplFmIe2LYG4mOK-0" target="a43TZkrOEhZXSLPtQOq1-6">
          <mxGeometry relative="1" as="geometry" />
        </mxCell>
        <mxCell id="nJn8ekplFmIe2LYG4mOK-0" value="index = 1; size -1; 1" style="shape=hexagon;perimeter=hexagonPerimeter2;whiteSpace=wrap;html=1;fixedSize=1;" parent="WIyWlLk6GJQsqaUBKTNV-1" vertex="1">
          <mxGeometry x="428" y="275" width="120" height="80" as="geometry" />
        </mxCell>
        <mxCell id="nJn8ekplFmIe2LYG4mOK-9" style="edgeStyle=orthogonalEdgeStyle;rounded=0;orthogonalLoop=1;jettySize=auto;html=1;" parent="WIyWlLk6GJQsqaUBKTNV-1" source="nJn8ekplFmIe2LYG4mOK-0" target="nJn8ekplFmIe2LYG4mOK-8" edge="1">
          <mxGeometry relative="1" as="geometry">
            <mxPoint x="488" y="445" as="sourcePoint" />
          </mxGeometry>
        </mxCell>
        <mxCell id="nJn8ekplFmIe2LYG4mOK-12" style="edgeStyle=orthogonalEdgeStyle;rounded=0;orthogonalLoop=1;jettySize=auto;html=1;exitX=0;exitY=0.5;exitDx=0;exitDy=0;" parent="WIyWlLk6GJQsqaUBKTNV-1" source="nJn8ekplFmIe2LYG4mOK-8" target="a43TZkrOEhZXSLPtQOq1-4" edge="1">
          <mxGeometry relative="1" as="geometry">
            <mxPoint x="310" y="445" as="targetPoint" />
          </mxGeometry>
        </mxCell>
        <mxCell id="nJn8ekplFmIe2LYG4mOK-13" value="Yes" style="edgeLabel;html=1;align=center;verticalAlign=middle;resizable=0;points=[];" parent="nJn8ekplFmIe2LYG4mOK-12" vertex="1" connectable="0">
          <mxGeometry x="-0.4017" y="-1" relative="1" as="geometry">
            <mxPoint x="1" as="offset" />
          </mxGeometry>
        </mxCell>
        <mxCell id="a43TZkrOEhZXSLPtQOq1-15" style="edgeStyle=orthogonalEdgeStyle;rounded=0;orthogonalLoop=1;jettySize=auto;html=1;exitX=0.5;exitY=1;exitDx=0;exitDy=0;entryX=0;entryY=0.5;entryDx=0;entryDy=0;" edge="1" parent="WIyWlLk6GJQsqaUBKTNV-1" source="nJn8ekplFmIe2LYG4mOK-8" target="nJn8ekplFmIe2LYG4mOK-0">
          <mxGeometry relative="1" as="geometry">
            <mxPoint x="250" y="680" as="targetPoint" />
            <Array as="points">
              <mxPoint x="488" y="550" />
              <mxPoint x="30" y="550" />
              <mxPoint x="30" y="315" />
            </Array>
          </mxGeometry>
        </mxCell>
        <mxCell id="a43TZkrOEhZXSLPtQOq1-16" value="No" style="edgeLabel;html=1;align=center;verticalAlign=middle;resizable=0;points=[];" vertex="1" connectable="0" parent="a43TZkrOEhZXSLPtQOq1-15">
          <mxGeometry x="-0.9513" y="-1" relative="1" as="geometry">
            <mxPoint as="offset" />
          </mxGeometry>
        </mxCell>
        <mxCell id="nJn8ekplFmIe2LYG4mOK-8" value="if initialArray[index].Length &amp;lt;= 3" style="rhombus;whiteSpace=wrap;html=1;" parent="WIyWlLk6GJQsqaUBKTNV-1" vertex="1">
          <mxGeometry x="368.5" y="400" width="238.5" height="90" as="geometry" />
        </mxCell>
        <mxCell id="nJn8ekplFmIe2LYG4mOK-16" style="edgeStyle=orthogonalEdgeStyle;rounded=0;orthogonalLoop=1;jettySize=auto;html=1;exitX=0.5;exitY=1;exitDx=0;exitDy=0;" parent="WIyWlLk6GJQsqaUBKTNV-1" source="gtBUwyys2WCeIk4xlRrJ-0" target="gtBUwyys2WCeIk4xlRrJ-1" edge="1">
          <mxGeometry relative="1" as="geometry">
            <mxPoint x="487.75" y="130" as="sourcePoint" />
          </mxGeometry>
        </mxCell>
        <mxCell id="a43TZkrOEhZXSLPtQOq1-3" style="edgeStyle=orthogonalEdgeStyle;rounded=0;orthogonalLoop=1;jettySize=auto;html=1;exitX=0.5;exitY=1;exitDx=0;exitDy=0;" edge="1" parent="WIyWlLk6GJQsqaUBKTNV-1" source="a43TZkrOEhZXSLPtQOq1-0" target="nJn8ekplFmIe2LYG4mOK-0">
          <mxGeometry relative="1" as="geometry" />
        </mxCell>
        <mxCell id="a43TZkrOEhZXSLPtQOq1-0" value="&lt;div&gt;resultArray[]&lt;/div&gt;count = 0" style="rounded=0;whiteSpace=wrap;html=1;" vertex="1" parent="WIyWlLk6GJQsqaUBKTNV-1">
          <mxGeometry x="427.75" y="170" width="120" height="60" as="geometry" />
        </mxCell>
        <mxCell id="a43TZkrOEhZXSLPtQOq1-17" style="edgeStyle=orthogonalEdgeStyle;rounded=0;orthogonalLoop=1;jettySize=auto;html=1;exitX=0;exitY=0.5;exitDx=0;exitDy=0;" edge="1" parent="WIyWlLk6GJQsqaUBKTNV-1" source="a43TZkrOEhZXSLPtQOq1-4">
          <mxGeometry relative="1" as="geometry">
            <mxPoint x="30" y="445" as="targetPoint" />
          </mxGeometry>
        </mxCell>
        <mxCell id="a43TZkrOEhZXSLPtQOq1-4" value="resultArray[count] = initialArray[index]&lt;div&gt;count = count + 1&lt;/div&gt;" style="rounded=0;whiteSpace=wrap;html=1;" vertex="1" parent="WIyWlLk6GJQsqaUBKTNV-1">
          <mxGeometry x="80" y="415" width="210" height="60" as="geometry" />
        </mxCell>
        <mxCell id="a43TZkrOEhZXSLPtQOq1-12" style="edgeStyle=orthogonalEdgeStyle;rounded=0;orthogonalLoop=1;jettySize=auto;html=1;exitX=0.5;exitY=0.825;exitDx=0;exitDy=0;exitPerimeter=0;" edge="1" parent="WIyWlLk6GJQsqaUBKTNV-1" source="a43TZkrOEhZXSLPtQOq1-6" target="a43TZkrOEhZXSLPtQOq1-10">
          <mxGeometry relative="1" as="geometry" />
        </mxCell>
        <mxCell id="a43TZkrOEhZXSLPtQOq1-6" value="print(resultArray[])" style="shape=document;whiteSpace=wrap;html=1;boundedLbl=1;" vertex="1" parent="WIyWlLk6GJQsqaUBKTNV-1">
          <mxGeometry x="650" y="275" width="120" height="80" as="geometry" />
        </mxCell>
        <mxCell id="a43TZkrOEhZXSLPtQOq1-10" value="finish" style="ellipse;whiteSpace=wrap;html=1;" vertex="1" parent="WIyWlLk6GJQsqaUBKTNV-1">
          <mxGeometry x="650" y="400" width="120" height="40" as="geometry" />
        </mxCell>
      </root>
    </mxGraphModel>
  </diagram>
</mxfile>
